<svg aria-label="센서부터 GICP 추적기와 Supervisor까지의 기능 계층" role="img" viewbox="0 0 1000 440" xmlns="http://www.w3.org/2000/svg"><defs><marker id="arrow" markerheight="8" markerwidth="8" orient="auto" refx="7" refy="4"><path d="M0 0 L8 4 L0 8" fill="none" stroke="#617d91"></path></marker></defs><rect fill="#f1f6fa" height="440" rx="14" width="1000"></rect><rect fill="#fff" height="365" rx="14" stroke="#478fa0" stroke-width="2" width="485" x="250" y="35"></rect><text class="head" x="275" y="67">이번 측위 시스템 전체</text><text class="small" x="275" y="91">FAST-LIO2와 비교할 수 있는 기능 범위</text><g fill="#e5edf5" stroke="#b4c5d5"><rect height="74" rx="9" width="175" x="25" y="122"></rect><rect height="74" rx="9" width="175" x="25" y="263"></rect></g><text class="head" x="49" y="153">원본 LiDAR</text><text class="small" x="49" y="178">거리 점군 + 측정 시각</text><text class="head" x="49" y="294">원본 IMU</text><text class="small" x="49" y="319">각속도 + 가속도</text><g fill="#e7f4f0" stroke="#68a28f"><rect height="72" rx="8" width="180" x="275" y="123"></rect><rect height="74" rx="8" width="180" x="275" y="263"></rect><rect height="105" rx="8" width="205" x="497" y="179"></rect></g><text x="294" y="152">점군 전처리</text><text class="small" x="294" y="177">거리 · voxel · local map</text><text x="293" y="291">중력 초기화</text><text x="293" y="317">gyro 회전 예측</text><text class="head" x="524" y="211">GICP 정합 엔진</text><text class="small" x="518" y="240">ICP 계열의 내부 부품</text><text class="small" x="518" y="262">초기값 주변에서 pose 갱신</text><text x="303" y="372">측정 유효성 · 관측 시각 · 최신 지도 관리</text><rect fill="#fff" height="92" rx="8" stroke="#b4c5d5" width="190" x="785" y="125"></rect><text class="head" x="808" y="159">Stair Supervisor</text><text class="small" x="808" y="187">경로 판단 · 보정 명령</text><rect fill="#fff" height="65" rx="8" stroke="#b4c5d5" width="190" x="785" y="278"></rect><text x="831" y="317">RViz 표시</text><g fill="none" marker-end="url(#arrow)" stroke="#617d91" stroke-width="2"><path d="M200 159 H272"></path><path d="M200 300 H272"></path><path d="M455 159 H477 V199 H494"></path><path d="M455 300 H477 V261 H494"></path><path d="M735 170 H782"></path><path d="M735 310 H782"></path></g></svg>